<?xml version="1.0" encoding="utf-8"?>
<!-- Generator: Adobe Illustrator 22.1.0, SVG Export Plug-In . SVG Version: 6.00 Build 0)  -->
<svg version="1.1" id="Layer_1" xmlns="http://www.w3.org/2000/svg" xmlns:xlink="http://www.w3.org/1999/xlink" x="0px" y="0px"
	 viewBox="0 0 500 500" style="enable-background:new 0 0 500 500;" xml:space="preserve">
<g>
	<path d="M250.5,498c-66.1,0-128.3-25.7-175-72.5C28.7,378.8,3,316.6,3,250.5s25.7-128.3,72.5-175S184.4,3,250.5,3
		s128.3,25.7,175,72.5c46.7,46.7,72.5,108.9,72.5,175s-25.7,128.3-72.5,175C378.8,472.3,316.6,498,250.5,498z M250.5,38
		C133.3,38,38,133.3,38,250.5S133.3,463,250.5,463S463,367.7,463,250.5S367.7,38,250.5,38z"/>
</g>
<g>
	<circle cx="309" cy="163.2" r="27"/>
</g>
<g>
	<circle cx="191.4" cy="163.2" r="27"/>
</g>
<g>
	<path d="M250,381.2c-27.9,0-54.8-10.1-75.8-28.5c-20.8-18.2-34.3-43.3-38.1-70.5c-0.7-5.3-1.1-10.6-1.1-16
		c0-9.7,7.8-17.5,17.5-17.5h195c9.7,0,17.5,7.8,17.5,17.5C365,329.7,313.4,381.2,250,381.2z M171.9,283.8
		c8.1,36,40.5,62.5,78.1,62.5c38.1,0,70.1-26.8,78.1-62.5H171.9z"/>
</g>
</svg>
