<?xml version="1.0" encoding="utf-8"?>
<!-- Generator: Adobe Illustrator 22.1.0, SVG Export Plug-In . SVG Version: 6.00 Build 0)  -->
<svg version="1.1" id="Layer_1" xmlns="http://www.w3.org/2000/svg" xmlns:xlink="http://www.w3.org/1999/xlink" x="0px" y="0px"
	 viewBox="0 0 500 500" style="enable-background:new 0 0 500 500;" xml:space="preserve">
<g>
	<path d="M58.5,475c-9.7,0-17.5-7.8-17.5-17.5V319c0-9.7,7.8-17.5,17.5-17.5S76,309.3,76,319v138.5C76,467.2,68.2,475,58.5,475z"/>
</g>
<g>
	<path d="M154.5,475c-9.7,0-17.5-7.8-17.5-17.5V250c0-9.7,7.8-17.5,17.5-17.5S172,240.3,172,250v207.5
		C172,467.2,164.2,475,154.5,475z"/>
</g>
<g>
	<path d="M346.5,475c-9.7,0-17.5-7.8-17.5-17.5V111c0-9.7,7.8-17.5,17.5-17.5S364,101.3,364,111v346.5
		C364,467.2,356.2,475,346.5,475z"/>
</g>
<g>
	<path d="M250.5,475c-9.7,0-17.5-7.8-17.5-17.5V181c0-9.7,7.8-17.5,17.5-17.5S268,171.3,268,181v276.5
		C268,467.2,260.2,475,250.5,475z"/>
</g>
<g>
	<path d="M442.5,474.8c-9.7,0-17.5-7.8-17.5-17.5V43c0-9.7,7.8-17.5,17.5-17.5S460,33.3,460,43v414.2
		C460,466.9,452.2,474.8,442.5,474.8z"/>
</g>
</svg>
