<?xml version="1.0" encoding="utf-8"?>
<!-- Generator: Adobe Illustrator 22.1.0, SVG Export Plug-In . SVG Version: 6.00 Build 0)  -->
<svg version="1.1" id="Layer_1" xmlns="http://www.w3.org/2000/svg" xmlns:xlink="http://www.w3.org/1999/xlink" x="0px" y="0px"
	 viewBox="0 0 500 500" style="enable-background:new 0 0 500 500;" xml:space="preserve">
<g>
	<path d="M267.4,475.6h-33.9c-28.4,0-51.6-23.1-51.6-51.6v-28c0-5.9-3.3-11.5-8.5-14.5l-0.4-0.2c-5.3-3-11.7-3.1-16.8-0.2l-24.3,14
		c-24.6,14.2-56.2,5.8-70.4-18.9l-16.9-29.3c-6.9-11.9-8.7-25.8-5.2-39.1s12.1-24.4,24-31.3l24.3-14c5.1-3,8.3-8.6,8.3-14.7v-0.4
		c0-6.1-3.2-11.7-8.3-14.7l-24.3-14c-11.9-6.9-20.5-18-24-31.3c-3.6-13.3-1.7-27.2,5.2-39.1l16.9-29.3c6.9-11.9,18-20.5,31.3-24
		c13.3-3.6,27.2-1.7,39.1,5.2l24.3,14c5.1,3,11.6,2.9,16.9-0.2l0.4-0.2c5.3-3,8.6-8.6,8.6-14.5v-28c0-28.4,23.1-51.6,51.6-51.6h33.9
		c28.4,0,51.6,23.1,51.6,51.6v28c0,5.9,3.3,11.5,8.5,14.5l0.4,0.2c5.3,3.1,11.8,3.1,16.9,0.2l24.3-14c11.9-6.9,25.8-8.7,39.1-5.2
		c13.3,3.6,24.4,12.1,31.3,24l16.9,29.3c6.9,11.9,8.7,25.8,5.2,39.1c-3.6,13.3-12.1,24.4-24,31.3l-24.3,14c-5.1,3-8.3,8.6-8.3,14.7
		v0.4c0,6.1,3.2,11.7,8.3,14.7l0,0l24.3,14c11.9,6.9,20.5,18,24,31.3s1.7,27.2-5.2,39.1l-16.9,29.3c-14.2,24.6-45.8,33.1-70.4,18.9
		l-24.3-14c-5.1-3-11.6-2.9-16.9,0.2l-0.3,0.2c-5.3,3.1-8.6,8.6-8.6,14.5v28C319,452.4,295.9,475.6,267.4,475.6z M164.4,343.9
		c9,0,18.1,2.4,26.2,7.1l0.4,0.2c16,9.2,26,26.4,26,44.8v28c0,9.1,7.4,16.6,16.6,16.6h33.9c9.1,0,16.6-7.4,16.6-16.6v-28
		c0-18.4,10-35.6,26.1-44.8l0.3-0.2c16.1-9.3,36-9.4,52-0.2l24.3,14c3.8,2.2,8.3,2.8,12.6,1.7c4.3-1.1,7.8-3.9,10.1-7.7l16.9-29.3
		c2.2-3.8,2.8-8.3,1.7-12.6c-1.1-4.3-3.9-7.8-7.7-10.1l-24.3-14c-15.9-9.2-25.8-26.4-25.8-45v-0.4c0-18.6,9.9-35.8,25.8-45l24.3-14
		c3.8-2.2,6.6-5.8,7.7-10.1c1.1-4.3,0.6-8.7-1.7-12.6l-16.9-29.3c-2.2-3.8-5.8-6.6-10.1-7.7c-4.3-1.1-8.7-0.6-12.6,1.7l-24.3,14
		c-15.9,9.2-35.8,9.1-51.9-0.2l-0.3-0.2c-16.1-9.2-26-26.4-26-44.8v-28c0-9.1-7.4-16.6-16.6-16.6h-33.9c-9.1,0-16.6,7.4-16.6,16.6
		v28c0,18.4-10,35.6-26.1,44.8l-0.3,0.2c-16.1,9.3-36,9.4-51.9,0.2l-24.3-14c-3.8-2.2-8.3-2.8-12.6-1.7c-4.3,1.1-7.8,3.9-10.1,7.7
		l-16.9,29.3c-2.2,3.8-2.8,8.3-1.7,12.6c1.1,4.3,3.9,7.8,7.7,10.1l24.3,14c15.9,9.2,25.8,26.4,25.8,45v0.4c0,18.6-9.9,35.8-25.8,45
		l-24.3,14c-3.8,2.2-6.6,5.8-7.7,10.1c-1.1,4.3-0.6,8.7,1.7,12.6l16.9,29.3c4.6,7.9,14.7,10.6,22.6,6.1l24.3-14
		C146.6,346.2,155.5,343.9,164.4,343.9z"/>
</g>
<g>
	<path d="M250.5,312c-35.6,0-64.5-28.9-64.5-64.5s28.9-64.5,64.5-64.5s64.5,28.9,64.5,64.5S286.1,312,250.5,312z M250.5,218
		c-16.3,0-29.5,13.2-29.5,29.5c0,16.3,13.2,29.5,29.5,29.5c16.3,0,29.5-13.2,29.5-29.5C280,231.2,266.8,218,250.5,218z"/>
</g>
</svg>
