<?xml version="1.0" encoding="utf-8"?>
<!-- Generator: Adobe Illustrator 22.1.0, SVG Export Plug-In . SVG Version: 6.00 Build 0)  -->
<svg version="1.1" id="Layer_1" xmlns="http://www.w3.org/2000/svg" xmlns:xlink="http://www.w3.org/1999/xlink" x="0px" y="0px"
	 viewBox="0 0 500 500" style="enable-background:new 0 0 500 500;" xml:space="preserve">
<g>
	<path d="M388.4,480.5c-2.8,0-5.6-0.7-8.1-2L250,410l-130.3,68.5c-5.9,3.1-13,2.6-18.4-1.3c-5.4-3.9-8.1-10.6-7-17.1L119.2,315
		L13.8,212.2c-4.8-4.6-6.5-11.6-4.4-17.9c2.1-6.3,7.5-11,14.1-11.9l145.7-21.2l65.1-132c2.9-6,9-9.8,15.7-9.8s12.7,3.8,15.7,9.8
		l65.1,132l145.7,21.2c6.6,1,12.1,5.6,14.1,11.9c2.1,6.3,0.3,13.3-4.4,17.9L380.8,315l24.9,145.1c1.1,6.6-1.6,13.2-7,17.1
		C395.7,479.4,392.1,480.5,388.4,480.5z M250,372.8c2.8,0,5.6,0.7,8.1,2L365.2,431l-20.4-119.2c-1-5.7,0.9-11.5,5-15.5l86.6-84.4
		l-119.7-17.4c-5.7-0.8-10.6-4.4-13.2-9.6L250,76.5L196.5,185c-2.5,5.2-7.5,8.7-13.2,9.6L63.6,211.9l86.6,84.4c4.1,4,6,9.8,5,15.5
		L134.8,431l107.1-56.3C244.4,373.4,247.2,372.8,250,372.8z"/>
</g>
</svg>
